<mxfile host="app.diagrams.net" modified="2023-04-03T14:17:15.103Z" agent="Mozilla/5.0 (Macintosh; Intel Mac OS X 10_15_7) AppleWebKit/537.36 (KHTML, like Gecko) Chrome/111.0.0.0 Safari/537.36" etag="CScQGnj4tnuuz8FsvhnR" version="21.1.2" type="github">
  <diagram name="第 1 页" id="7fXY0yZBquvqDx3KHDn1">
    <mxGraphModel dx="2992" dy="2176" grid="0" gridSize="10" guides="1" tooltips="1" connect="1" arrows="1" fold="1" page="0" pageScale="1" pageWidth="1700" pageHeight="1100" math="0" shadow="0">
      <root>
        <mxCell id="0" />
        <mxCell id="1" parent="0" />
        <mxCell id="gfVVBqXn79-pAVJmNeN2-5" value="安全岛" style="rounded=0;whiteSpace=wrap;html=1;labelPosition=center;verticalLabelPosition=top;align=center;verticalAlign=bottom;fillColor=#99CCFF;" parent="1" vertex="1">
          <mxGeometry x="788" y="-287" width="413" height="351" as="geometry" />
        </mxCell>
        <mxCell id="gfVVBqXn79-pAVJmNeN2-7" value="出包（pid+md5）" style="text;html=1;strokeColor=none;fillColor=none;align=center;verticalAlign=middle;whiteSpace=wrap;rounded=0;fontStyle=1;fontSize=14;" parent="1" vertex="1">
          <mxGeometry x="573" y="-278" width="143" height="28" as="geometry" />
        </mxCell>
        <mxCell id="gfVVBqXn79-pAVJmNeN2-8" value="&lt;font style=&quot;font-size: 14px;&quot;&gt;pid与td大库匹配，拿到did，这里的did是by设备类型的&lt;/font&gt;" style="ellipse;shape=cloud;whiteSpace=wrap;html=1;" parent="1" vertex="1">
          <mxGeometry x="827" y="-267" width="295" height="126.75" as="geometry" />
        </mxCell>
        <mxCell id="gfVVBqXn79-pAVJmNeN2-9" value="&lt;p style=&quot;border-color: var(--border-color); margin: 0px; line-height: 12px;&quot; align=&quot;center&quot;&gt;&lt;font face=&quot;Microsoft YaHei&quot; color=&quot;#191919&quot;&gt;&lt;span style=&quot;font-size: 17.3333px;&quot;&gt;&lt;b&gt;did文件&lt;/b&gt;&lt;/span&gt;&lt;/font&gt;&lt;/p&gt;" style="rounded=1;whiteSpace=wrap;html=1;" parent="1" vertex="1">
          <mxGeometry x="875" y="-62" width="199" height="78" as="geometry" />
        </mxCell>
        <mxCell id="gfVVBqXn79-pAVJmNeN2-10" value="" style="shape=flexArrow;endArrow=classic;html=1;rounded=0;" parent="1" target="gfVVBqXn79-pAVJmNeN2-9" edge="1">
          <mxGeometry width="50" height="50" relative="1" as="geometry">
            <mxPoint x="975" y="-136" as="sourcePoint" />
            <mxPoint x="1028" y="-186" as="targetPoint" />
          </mxGeometry>
        </mxCell>
        <mxCell id="gfVVBqXn79-pAVJmNeN2-11" value="" style="shape=flexArrow;endArrow=classic;html=1;rounded=0;" parent="1" edge="1">
          <mxGeometry width="50" height="50" relative="1" as="geometry">
            <mxPoint x="753" y="-76" as="sourcePoint" />
            <mxPoint x="563" y="-76" as="targetPoint" />
          </mxGeometry>
        </mxCell>
        <mxCell id="gfVVBqXn79-pAVJmNeN2-12" value="出包（did）" style="text;html=1;strokeColor=none;fillColor=none;align=center;verticalAlign=middle;whiteSpace=wrap;rounded=0;fontStyle=1;fontSize=14;" parent="1" vertex="1">
          <mxGeometry x="580" y="-62" width="143" height="28" as="geometry" />
        </mxCell>
        <mxCell id="gfVVBqXn79-pAVJmNeN2-21" value="SMC公域画像" style="rounded=0;whiteSpace=wrap;html=1;labelPosition=center;verticalLabelPosition=top;align=center;verticalAlign=bottom;fillColor=#99CCFF;" parent="1" vertex="1">
          <mxGeometry x="785" y="138" width="419" height="229" as="geometry" />
        </mxCell>
        <mxCell id="gfVVBqXn79-pAVJmNeN2-30" value="SMC进行人群构建以及画像渲染" style="ellipse;shape=cloud;whiteSpace=wrap;html=1;" parent="1" vertex="1">
          <mxGeometry x="436" y="1035" width="262" height="132.5" as="geometry" />
        </mxCell>
        <mxCell id="VDL4ZSIlyJueon5hfBDS-1" value="" style="rounded=0;whiteSpace=wrap;html=1;fontSize=15;fontColor=#ffffff;fillColor=#1ba1e2;labelBackgroundColor=#33FFFF;strokeColor=#006EAF;" vertex="1" parent="1">
          <mxGeometry x="-199" y="-280" width="82" height="613" as="geometry" />
        </mxCell>
        <mxCell id="VDL4ZSIlyJueon5hfBDS-2" value="&lt;font color=&quot;#000000&quot; style=&quot;font-size: 12px;&quot;&gt;数据存储&lt;/font&gt;" style="text;html=1;strokeColor=none;fillColor=none;align=center;verticalAlign=middle;whiteSpace=wrap;rounded=0;fontSize=12;fontColor=#FFFFFF;" vertex="1" parent="1">
          <mxGeometry x="-186.5" y="-262" width="60" height="30" as="geometry" />
        </mxCell>
        <mxCell id="VDL4ZSIlyJueon5hfBDS-3" value="HDFS" style="text;html=1;strokeColor=none;fillColor=none;align=center;verticalAlign=middle;whiteSpace=wrap;rounded=0;labelBackgroundColor=none;fontSize=13;fontColor=#000000;" vertex="1" parent="1">
          <mxGeometry x="-186.5" y="-143" width="60" height="30" as="geometry" />
        </mxCell>
        <mxCell id="VDL4ZSIlyJueon5hfBDS-4" value="&lt;span style=&quot;color: rgba(0, 0, 0, 0); font-family: monospace; font-size: 0px; text-align: start; background-color: rgb(251, 251, 251);&quot;&gt;%3CmxGraphModel%3E%3Croot%3E%3CmxCell%20id%3D%220%22%2F%3E%3CmxCell%20id%3D%221%22%20parent%3D%220%22%2F%3E%3CmxCell%20id%3D%222%22%20value%3D%22%26lt%3Bfont%20color%3D%26quot%3B%23000000%26quot%3B%20style%3D%26quot%3Bfont-size%3A%2013px%3B%26quot%3B%26gt%3B%E6%95%B0%E6%8D%AE%E5%AD%98%E5%82%A8%26lt%3B%2Ffont%26gt%3B%22%20style%3D%22text%3Bhtml%3D1%3BstrokeColor%3Dnone%3BfillColor%3Dnone%3Balign%3Dcenter%3BverticalAlign%3Dmiddle%3BwhiteSpace%3Dwrap%3Brounded%3D0%3BfontSize%3D13%3BfontColor%3D%23FFFFFF%3B%22%20vertex%3D%221%22%20parent%3D%221%22%3E%3CmxGeometry%20x%3D%22235%22%20y%3D%22165%22%20width%3D%2260%22%20height%3D%2230%22%20as%3D%22geometry%22%2F%3E%3C%2FmxCell%3E%3C%2Froot%3E%3C%2FmxGraphModel%3E&lt;/span&gt;" style="rounded=0;whiteSpace=wrap;html=1;fontSize=15;fontColor=#FFFFFF;fillColor=#66B2FF;labelBackgroundColor=#33FFFF;strokeColor=none;" vertex="1" parent="1">
          <mxGeometry x="-103" y="-280" width="76" height="612" as="geometry" />
        </mxCell>
        <mxCell id="VDL4ZSIlyJueon5hfBDS-5" value="&lt;font color=&quot;#000000&quot; style=&quot;font-size: 12px;&quot;&gt;计算引擎&lt;/font&gt;" style="text;html=1;strokeColor=none;fillColor=none;align=center;verticalAlign=middle;whiteSpace=wrap;rounded=0;fontSize=12;fontColor=#FFFFFF;" vertex="1" parent="1">
          <mxGeometry x="-90" y="-260" width="60" height="30" as="geometry" />
        </mxCell>
        <mxCell id="VDL4ZSIlyJueon5hfBDS-6" value="SparkSQL" style="text;html=1;strokeColor=none;fillColor=none;align=center;verticalAlign=middle;whiteSpace=wrap;rounded=0;labelBackgroundColor=none;fontSize=12;fontColor=#000000;" vertex="1" parent="1">
          <mxGeometry x="-95" y="-17" width="60" height="30" as="geometry" />
        </mxCell>
        <mxCell id="VDL4ZSIlyJueon5hfBDS-7" value="SFTP" style="text;html=1;strokeColor=none;fillColor=none;align=center;verticalAlign=middle;whiteSpace=wrap;rounded=0;labelBackgroundColor=none;fontSize=13;fontColor=#000000;" vertex="1" parent="1">
          <mxGeometry x="-186.5" y="108" width="60" height="30" as="geometry" />
        </mxCell>
        <mxCell id="VDL4ZSIlyJueon5hfBDS-8" value="输入（cdp人群）" style="rounded=0;whiteSpace=wrap;html=1;fillColor=#99CCFF;fontSize=14;fontStyle=1" vertex="1" parent="1">
          <mxGeometry x="55.5" y="-472" width="259" height="67.5" as="geometry" />
        </mxCell>
        <mxCell id="VDL4ZSIlyJueon5hfBDS-9" value="加工cdp圈选的人群（pid+md5）" style="rounded=1;whiteSpace=wrap;html=1;fillColor=#1ba1e2;strokeColor=#006EAF;fontColor=#000000;fontSize=14;" vertex="1" parent="1">
          <mxGeometry x="37" y="-278" width="296" height="58" as="geometry" />
        </mxCell>
        <mxCell id="VDL4ZSIlyJueon5hfBDS-10" value="文件" style="rounded=0;whiteSpace=wrap;html=1;fillColor=#1ba1e2;fontColor=#000000;strokeColor=#006EAF;fontSize=14;" vertex="1" parent="1">
          <mxGeometry x="423" y="-277" width="120" height="60" as="geometry" />
        </mxCell>
        <mxCell id="VDL4ZSIlyJueon5hfBDS-11" value="" style="shape=flexArrow;endArrow=classic;html=1;rounded=0;" edge="1" parent="1">
          <mxGeometry width="50" height="50" relative="1" as="geometry">
            <mxPoint x="349" y="-245.67000000000007" as="sourcePoint" />
            <mxPoint x="408" y="-245.67000000000007" as="targetPoint" />
          </mxGeometry>
        </mxCell>
        <mxCell id="VDL4ZSIlyJueon5hfBDS-12" value="" style="shape=flexArrow;endArrow=classic;html=1;rounded=0;" edge="1" parent="1">
          <mxGeometry width="50" height="50" relative="1" as="geometry">
            <mxPoint x="182" y="-393" as="sourcePoint" />
            <mxPoint x="182" y="-293" as="targetPoint" />
          </mxGeometry>
        </mxCell>
        <mxCell id="VDL4ZSIlyJueon5hfBDS-13" value="" style="shape=flexArrow;endArrow=classic;html=1;rounded=0;" edge="1" parent="1">
          <mxGeometry width="50" height="50" relative="1" as="geometry">
            <mxPoint x="563" y="-243.00000000000009" as="sourcePoint" />
            <mxPoint x="741" y="-243" as="targetPoint" />
          </mxGeometry>
        </mxCell>
        <mxCell id="VDL4ZSIlyJueon5hfBDS-14" value="" style="rounded=1;whiteSpace=wrap;html=1;fillColor=#1ba1e2;strokeColor=#006EAF;fontColor=#ffffff;fontSize=14;" vertex="1" parent="1">
          <mxGeometry x="37" y="-153" width="506" height="130" as="geometry" />
        </mxCell>
        <mxCell id="VDL4ZSIlyJueon5hfBDS-15" value="MySql" style="text;html=1;strokeColor=none;fillColor=none;align=center;verticalAlign=middle;whiteSpace=wrap;rounded=0;fontStyle=1;fontSize=14;" vertex="1" parent="1">
          <mxGeometry x="42" y="-148" width="60" height="30" as="geometry" />
        </mxCell>
        <mxCell id="VDL4ZSIlyJueon5hfBDS-17" value="smc_did_tmp(did临时数据)" style="rounded=0;whiteSpace=wrap;html=1;fillColor=#b1ddf0;strokeColor=#10739e;fontSize=14;" vertex="1" parent="1">
          <mxGeometry x="134" y="-113" width="269" height="41" as="geometry" />
        </mxCell>
        <mxCell id="VDL4ZSIlyJueon5hfBDS-19" value="" style="rounded=1;whiteSpace=wrap;html=1;fillColor=#1ba1e2;strokeColor=#006EAF;fontColor=#ffffff;fontSize=14;" vertex="1" parent="1">
          <mxGeometry x="34" y="61" width="500" height="88" as="geometry" />
        </mxCell>
        <mxCell id="VDL4ZSIlyJueon5hfBDS-20" value="临时文件" style="text;html=1;strokeColor=none;fillColor=none;align=center;verticalAlign=middle;whiteSpace=wrap;rounded=0;fontStyle=1;fontSize=14;" vertex="1" parent="1">
          <mxGeometry x="42" y="81" width="60" height="30" as="geometry" />
        </mxCell>
        <mxCell id="VDL4ZSIlyJueon5hfBDS-21" value="临时文件列表" style="rounded=0;whiteSpace=wrap;html=1;fillColor=#b1ddf0;strokeColor=#10739e;fontSize=14;" vertex="1" parent="1">
          <mxGeometry x="131" y="81" width="269" height="41" as="geometry" />
        </mxCell>
        <mxCell id="VDL4ZSIlyJueon5hfBDS-22" value="" style="shape=flexArrow;endArrow=classic;html=1;rounded=0;" edge="1" parent="1">
          <mxGeometry width="50" height="50" relative="1" as="geometry">
            <mxPoint x="255" y="-17" as="sourcePoint" />
            <mxPoint x="255" y="55" as="targetPoint" />
          </mxGeometry>
        </mxCell>
        <mxCell id="VDL4ZSIlyJueon5hfBDS-23" value="对文件按照100M切包" style="text;html=1;strokeColor=none;fillColor=none;align=center;verticalAlign=middle;whiteSpace=wrap;rounded=0;fontSize=14;fontStyle=1" vertex="1" parent="1">
          <mxGeometry x="272" y="8" width="146" height="27" as="geometry" />
        </mxCell>
        <mxCell id="VDL4ZSIlyJueon5hfBDS-25" value="" style="rounded=1;whiteSpace=wrap;html=1;fillColor=#1ba1e2;strokeColor=#006EAF;fontColor=#ffffff;fontSize=14;" vertex="1" parent="1">
          <mxGeometry x="31" y="202" width="506" height="130" as="geometry" />
        </mxCell>
      </root>
    </mxGraphModel>
  </diagram>
</mxfile>
